<svg width="12" height="9" viewBox="0 0 12 9" fill="none" xmlns="http://www.w3.org/2000/svg"><path d="M9.06 5.136H.69c-.377 0-.65-.23-.685-.571-.04-.402.248-.714.663-.714h8.44a6.493 6.493 0 0 0-.165-.178L6.458 1.117C6.24.893 6.19.624 6.308.365a.595.595 0 0 1 .24-.282.57.57 0 0 1 .358-.08.771.771 0 0 1 .412.193c1.25 1.27 2.493 2.548 3.73 3.83.27.279.272.655 0 .931-1.24 1.28-2.482 2.559-3.727 3.835a.618.618 0 0 1-.442.203.602.602 0 0 1-.449-.187c-.254-.26-.25-.654.02-.932a659.62 659.62 0 0 1 2.47-2.542c.054-.048.111-.093.171-.133l-.03-.065z" fill="#fff"/></svg>