<svg width="90" height="109" viewBox="0 0 90 109" fill="none" xmlns="http://www.w3.org/2000/svg"><path d="M89.239 0c-5.06 1.141-10.037 2.828-14.987 4.28a286.27 286.27 0 0 0-15.367 5.085c-.598.234-1.224.441-1.822.675-12.62 4.773-30.68 12.764-42.049 27.395C5.278 49.913 2.612 66.024 1.171 81.537a290.023 290.023 0 0 0-1.143 20.054l15.748-5.5c2.475-.882 4.243-3.01 4.542-5.526l5.113-44.206c.354-2.957 2.394-5.474 5.331-6.485l17.897-6.278c1.496-.52 3.019.622 2.856 2.127L47.87 67.399c-.163 1.504 1.36 2.646 2.856 2.127l10.88-3.814c1.985-.7 3.372-2.386 3.616-4.384L70.31 17.46c.435-3.658 2.991-6.797 6.636-8.068l13.028-4.566C90 3.45 90 2.101 90 .778V.571A18.508 18.508 0 0 1 89.24 0z" fill="#90D701"/><path d="M77.923 12.167c-2.475.882-4.243 3.01-4.542 5.526l-5.113 44.206c-.354 2.957-2.394 5.474-5.331 6.486l-15.802 5.551c-1.496.52-3.02-.622-2.856-2.127v-.026l3.644-31.676c.163-1.505-1.36-2.646-2.855-2.127l-12.974 4.566c-1.986.7-3.373 2.386-3.617 4.384l-5.304 45.763c-.3 2.516-2.04 4.643-4.542 5.525L0 104.756v3.736c.19-.052.38-.078.571-.13 3.318-.96 6.637-1.894 9.955-2.854a449.066 449.066 0 0 0 10.09-3.061c2.557-.804 5.114-1.66 7.67-2.542 1.55-.545 3.1-1.116 4.624-1.687 12.62-4.747 30.68-12.763 42.076-27.369 9.737-12.504 12.402-28.589 13.843-44.128.599-6.408.953-12.686 1.089-18.73l-11.995 4.176z" fill="#90D701"/></svg>